<?xml version="1.0" encoding="utf-8"?>
<!-- Generator: Adobe Illustrator 28.0.0, SVG Export Plug-In . SVG Version: 6.00 Build 0)  -->
<svg version="1.1" id="Capa_1" xmlns="http://www.w3.org/2000/svg" xmlns:xlink="http://www.w3.org/1999/xlink" x="0px" y="0px"
	 viewBox="0 0 972 486" style="enable-background:new 0 0 972 486;" xml:space="preserve">
<style type="text/css">
	.st0{fill:#F3ED12;}
	.st1{fill:#F59CC7;}
	.st2{fill:#F5160E;}
	.st3{fill:#057EE8;}
	.st4{fill:#FFFFFF;}
</style>
<rect x="-0.29" y="0.51" width="975.21" height="487.6"/>
<polygon class="st0" points="73.22,-68.78 286.72,136.17 25.1,-21.73 24.39,-69.14 "/>
<path class="st0" d="M2.64,482.98c5.7-2.85,350.38-194.97,350.38-194.97L16.54,554.63l-34.22-37.07L2.64,482.98z"/>
<polygon class="st1" points="304.54,556.76 458.52,334.35 351.59,568.17 "/>
<polygon class="st0" points="760.37,596.84 606.62,301.27 820.04,570.76 "/>
<polygon class="st1" points="-6.18,280.35 320.17,234.47 -21.89,246.03 "/>
<polygon class="st1" points="383.32,-113.69 495.59,101.24 455.67,-114.05 "/>
<polygon class="st0" points="715.16,-99.38 618.35,72.62 757.07,-84.72 "/>
<polygon class="st1" points="619.59,154.52 984.64,75.07 984.98,149.71 "/>
<polygon class="st1" points="1000.23,404.36 592.9,230.27 1003.52,382.82 "/>
<g>
	<g>
		<path class="st2" d="M71,103.89c2.62,0,5.12-2.3,5-5c-0.12-2.71-2.2-5-5-5c-2.62,0-5.12,2.3-5,5
			C66.12,101.6,68.2,103.89,71,103.89L71,103.89z"/>
	</g>
</g>
<g>
	<g>
		<path class="st3" d="M147.99,156.64c3.22,0,3.22-5,0-5C144.77,151.64,144.77,156.64,147.99,156.64L147.99,156.64z"/>
	</g>
</g>
<g>
	<g>
		<path class="st3" d="M76.35,325.95c2.62,0,5.12-2.3,5-5c-0.12-2.71-2.2-5-5-5c-2.62,0-5.12,2.3-5,5
			C71.47,323.66,73.54,325.95,76.35,325.95L76.35,325.95z"/>
	</g>
</g>
<g>
	<g>
		<path class="st2" d="M293.42,441.44c2.62,0,5.12-2.3,5-5c-0.12-2.71-2.2-5-5-5c-2.62,0-5.12,2.3-5,5
			C288.54,439.14,290.61,441.44,293.42,441.44L293.42,441.44z"/>
	</g>
</g>
<g>
	<g>
		<path class="st3" d="M207.87,305.63c2.62,0,5.12-2.3,5-5c-0.12-2.71-2.2-5-5-5c-2.62,0-5.12,2.3-5,5
			C202.99,303.34,205.07,305.63,207.87,305.63L207.87,305.63z"/>
	</g>
</g>
<g>
	<g>
		<path class="st2" d="M77.42,215.81c2.62,0,5.12-2.3,5-5c-0.12-2.71-2.2-5-5-5c-2.62,0-5.12,2.3-5,5
			C72.54,213.52,74.61,215.81,77.42,215.81L77.42,215.81z"/>
	</g>
</g>
<g>
	<g>
		<path class="st3" d="M214.29,205.12c2.62,0,5.12-2.3,5-5c-0.12-2.71-2.2-5-5-5c-2.62,0-5.12,2.3-5,5
			C209.41,202.83,211.48,205.12,214.29,205.12L214.29,205.12z"/>
	</g>
</g>
<g>
	<g>
		<path class="st3" d="M139.44,105.31c3.22,0,3.22-5,0-5C136.22,100.31,136.21,105.31,139.44,105.31L139.44,105.31z"/>
	</g>
</g>
<g>
	<g>
		<path class="st3" d="M58.17,36.88c3.22,0,3.22-5,0-5C54.95,31.88,54.95,36.88,58.17,36.88L58.17,36.88z"/>
	</g>
</g>
<g>
	<g>
		<path class="st2" d="M73.14,380.49c2.62,0,5.12-2.3,5-5c-0.12-2.71-2.2-5-5-5c-2.62,0-5.12,2.3-5,5
			C68.26,378.19,70.34,380.49,73.14,380.49L73.14,380.49z"/>
	</g>
</g>
<g>
	<g>
		<path class="st3" d="M229.26,470.31c2.62,0,5.12-2.3,5-5c-0.12-2.71-2.2-5-5-5c-2.62,0-5.12,2.3-5,5
			C224.38,468.02,226.45,470.31,229.26,470.31L229.26,470.31z"/>
	</g>
</g>
<g>
	<g>
		<path class="st3" d="M332.98,401.51c3.22,0,3.22-5,0-5C329.76,396.51,329.76,401.51,332.98,401.51L332.98,401.51z"/>
	</g>
</g>
<g>
	<g>
		<path class="st2" d="M277.38,274.62c2.62,0,5.12-2.3,5-5c-0.12-2.71-2.2-5-5-5c-2.62,0-5.12,2.3-5,5
			C272.5,272.33,274.57,274.62,277.38,274.62L277.38,274.62z"/>
	</g>
</g>
<g>
	<g>
		<path class="st3" d="M195.04,337.35c3.22,0,3.22-5,0-5C191.82,332.35,191.82,337.35,195.04,337.35L195.04,337.35z"/>
	</g>
</g>
<g>
	<g>
		<path class="st2" d="M145.85,282.82c3.22,0,3.22-5,0-5C142.63,277.82,142.63,282.82,145.85,282.82L145.85,282.82z"/>
	</g>
</g>
<g>
	<g>
		<path class="st3" d="M136.23,369.79c2.62,0,5.12-2.3,5-5c-0.12-2.71-2.2-5-5-5c-2.62,0-5.12,2.3-5,5
			C131.35,367.5,133.42,369.79,136.23,369.79L136.23,369.79z"/>
	</g>
</g>
<g>
	<g>
		<path class="st3" d="M31.44,429.31c3.22,0,3.22-5,0-5C28.22,424.31,28.21,429.31,31.44,429.31L31.44,429.31z"/>
	</g>
</g>
<g>
	<g>
		<path class="st2" d="M35.71,327.73c3.22,0,3.22-5,0-5C32.5,322.73,32.49,327.73,35.71,327.73L35.71,327.73z"/>
	</g>
</g>
<g>
	<g>
		<path class="st3" d="M25.02,207.26c2.62,0,5.12-2.3,5-5c-0.12-2.71-2.2-5-5-5c-2.62,0-5.12,2.3-5,5
			C20.14,204.97,22.22,207.26,25.02,207.26L25.02,207.26z"/>
	</g>
</g>
<g>
	<g>
		<path class="st3" d="M17.53,116.37c2.62,0,5.12-2.3,5-5c-0.12-2.71-2.2-5-5-5c-2.62,0-5.12,2.3-5,5
			C12.66,114.08,14.73,116.37,17.53,116.37L17.53,116.37z"/>
	</g>
</g>
<g>
	<g>
		<path class="st2" d="M83.83,159.14c2.62,0,5.12-2.3,5-5c-0.12-2.71-2.2-5-5-5c-2.62,0-5.12,2.3-5,5
			C78.95,156.85,81.03,159.14,83.83,159.14L83.83,159.14z"/>
	</g>
</g>
<g>
	<g>
		<path class="st2" d="M141.57,215.45c3.22,0,3.22-5,0-5C138.36,210.45,138.35,215.45,141.57,215.45L141.57,215.45z"/>
	</g>
</g>
<g>
	<g>
		<path class="st2" d="M220.7,179.46c2.62,0,5.12-2.3,5-5c-0.12-2.71-2.2-5-5-5c-2.62,0-5.12,2.3-5,5
			C215.82,177.16,217.9,179.46,220.7,179.46L220.7,179.46z"/>
	</g>
</g>
<g>
	<g>
		<path class="st2" d="M187.55,134.54c2.62,0,5.12-2.3,5-5c-0.12-2.71-2.2-5-5-5c-2.62,0-5.12,2.3-5,5
			C182.68,132.25,184.75,134.54,187.55,134.54L187.55,134.54z"/>
	</g>
</g>
<g>
	<g>
		<path class="st3" d="M261.34,155.57c3.22,0,3.22-5,0-5C258.12,150.57,258.11,155.57,261.34,155.57L261.34,155.57z"/>
	</g>
</g>
<g>
	<g>
		<path class="st2" d="M277.38,205.83c3.22,0,3.22-5,0-5C274.16,200.83,274.15,205.83,277.38,205.83L277.38,205.83z"/>
	</g>
</g>
<g>
	<g>
		<path class="st2" d="M264.54,324.52c3.22,0,3.22-5,0-5C261.33,319.52,261.32,324.52,264.54,324.52L264.54,324.52z"/>
	</g>
</g>
<g>
	<g>
		<path class="st3" d="M314.8,354.46c3.22,0,3.22-5,0-5C311.58,349.46,311.58,354.46,314.8,354.46L314.8,354.46z"/>
	</g>
</g>
<g>
	<g>
		<path class="st3" d="M242.09,405.79c3.22,0,3.22-5,0-5C238.87,400.79,238.87,405.79,242.09,405.79L242.09,405.79z"/>
	</g>
</g>
<g>
	<g>
		<path class="st2" d="M266.68,465.67c3.22,0,3.22-5,0-5C263.47,460.67,263.46,465.67,266.68,465.67L266.68,465.67z"/>
	</g>
</g>
<g>
	<g>
		<path class="st2" d="M185.42,467.81c3.22,0,3.22-5,0-5C182.2,462.81,182.19,467.81,185.42,467.81L185.42,467.81z"/>
	</g>
</g>
<g>
	<g>
		<path class="st2" d="M341.53,462.46c3.22,0,3.22-5,0-5C338.32,457.46,338.31,462.46,341.53,462.46L341.53,462.46z"/>
	</g>
</g>
<g>
	<g>
		<path class="st2" d="M291.28,394.39c2.62,0,5.12-2.3,5-5c-0.12-2.71-2.2-5-5-5c-2.62,0-5.12,2.3-5,5
			C286.4,392.1,288.47,394.39,291.28,394.39L291.28,394.39z"/>
	</g>
</g>
<g>
	<g>
		<path class="st2" d="M366.13,371.57c3.22,0,3.22-5,0-5C362.91,366.57,362.91,371.57,366.13,371.57L366.13,371.57z"/>
	</g>
</g>
<g>
	<g>
		<path class="st2" d="M369.34,413.27c3.22,0,3.22-5,0-5C366.12,408.27,366.11,413.27,369.34,413.27L369.34,413.27z"/>
	</g>
</g>
<g>
	<g>
		<path class="st2" d="M304.11,478.5c3.22,0,3.22-5,0-5C300.89,473.5,300.89,478.5,304.11,478.5L304.11,478.5z"/>
	</g>
</g>
<g>
	<g>
		<path class="st2" d="M461.3,489.19c3.22,0,3.22-5,0-5C458.08,484.19,458.07,489.19,461.3,489.19L461.3,489.19z"/>
	</g>
</g>
<g>
	<g>
		<path class="st3" d="M496.58,351.25c3.22,0,3.22-5,0-5C493.37,346.25,493.36,351.25,496.58,351.25L496.58,351.25z"/>
	</g>
</g>
<g>
	<g>
		<path class="st3" d="M611,490.26c3.22,0,3.22-5,0-5C607.78,485.26,607.78,490.26,611,490.26L611,490.26z"/>
	</g>
</g>
<g>
	<g>
		<path class="st2" d="M573.57,446.78c2.62,0,5.12-2.3,5-5c-0.12-2.71-2.2-5-5-5c-2.62,0-5.12,2.3-5,5
			C568.7,444.49,570.77,446.78,573.57,446.78L573.57,446.78z"/>
	</g>
</g>
<g>
	<g>
		<path class="st3" d="M467.71,428.24c3.22,0,3.22-5,0-5C464.5,423.24,464.49,428.24,467.71,428.24L467.71,428.24z"/>
	</g>
</g>
<g>
	<g>
		<path class="st2" d="M573.57,357.67c3.22,0,3.22-5,0-5C570.36,352.67,570.35,357.67,573.57,357.67L573.57,357.67z"/>
	</g>
</g>
<g>
	<g>
		<path class="st2" d="M515.83,417.91c2.62,0,5.12-2.3,5-5c-0.12-2.71-2.2-5-5-5c-2.62,0-5.12,2.3-5,5
			C510.95,415.62,513.03,417.91,515.83,417.91L515.83,417.91z"/>
	</g>
</g>
<g>
	<g>
		<path class="st3" d="M525.46,475.65c2.62,0,5.12-2.3,5-5c-0.12-2.71-2.2-5-5-5c-2.62,0-5.12,2.3-5,5
			C520.58,473.36,522.65,475.65,525.46,475.65L525.46,475.65z"/>
	</g>
</g>
<g>
	<g>
		<path class="st2" d="M630.25,451.77c3.22,0,3.22-5,0-5C627.03,446.77,627.02,451.77,630.25,451.77L630.25,451.77z"/>
	</g>
</g>
<g>
	<g>
		<path class="st2" d="M477.34,385.47c3.22,0,3.22-5,0-5C474.12,380.47,474.11,385.47,477.34,385.47L477.34,385.47z"/>
	</g>
</g>
<g>
	<g>
		<path class="st3" d="M604.58,407.93c3.22,0,3.22-5,0-5C601.37,402.93,601.36,407.93,604.58,407.93L604.58,407.93z"/>
	</g>
</g>
<g>
	<g>
		<path class="st3" d="M649.5,301c3.22,0,3.22-5,0-5C646.28,296,646.27,301,649.5,301L649.5,301z"/>
	</g>
</g>
<g>
	<g>
		<path class="st2" d="M742.52,361.24c2.62,0,5.12-2.3,5-5c-0.12-2.71-2.2-5-5-5c-2.62,0-5.12,2.3-5,5
			C737.65,358.95,739.72,361.24,742.52,361.24L742.52,361.24z"/>
	</g>
</g>
<g>
	<g>
		<path class="st2" d="M924.31,407.93c3.22,0,3.22-5,0-5C921.09,402.93,921.08,407.93,924.31,407.93L924.31,407.93z"/>
	</g>
</g>
<g>
	<g>
		<path class="st2" d="M967.08,459.61c2.62,0,5.12-2.3,5-5c-0.12-2.71-2.2-5-5-5c-2.62,0-5.12,2.3-5,5
			C962.2,457.32,964.28,459.61,967.08,459.61L967.08,459.61z"/>
	</g>
</g>
<g>
	<g>
		<path d="M911.48,503.46c2.62,0,5.12-2.3,5-5c-0.12-2.71-2.2-5-5-5c-2.62,0-5.12,2.3-5,5C906.6,501.16,908.67,503.46,911.48,503.46
			L911.48,503.46z"/>
	</g>
</g>
<g>
	<g>
		<path class="st2" d="M785.3,476.36c3.22,0,3.22-5,0-5C782.08,471.36,782.07,476.36,785.3,476.36L785.3,476.36z"/>
	</g>
</g>
<g>
	<g>
		<path class="st2" d="M823.08,456.76c2.62,0,5.12-2.3,5-5c-0.12-2.71-2.2-5-5-5c-2.62,0-5.12,2.3-5,5
			C818.2,454.47,820.28,456.76,823.08,456.76L823.08,456.76z"/>
	</g>
</g>
<g>
	<g>
		<path class="st2" d="M630.25,324.52c3.22,0,3.22-5,0-5C627.03,319.52,627.02,324.52,630.25,324.52L630.25,324.52z"/>
	</g>
</g>
<g>
	<g>
		<path class="st2" d="M731.83,394.03c2.62,0,5.12-2.3,5-5c-0.12-2.71-2.2-5-5-5c-2.62,0-5.12,2.3-5,5
			C726.95,391.74,729.03,394.03,731.83,394.03L731.83,394.03z"/>
	</g>
</g>
<g>
	<g>
		<path class="st3" d="M687.63,381.19c3.22,0,3.22-5,0-5C684.42,376.19,684.41,381.19,687.63,381.19L687.63,381.19z"/>
	</g>
</g>
<g>
	<g>
		<path class="st2" d="M678.37,319.17c3.22,0,3.22-5,0-5C675.15,314.17,675.14,319.17,678.37,319.17L678.37,319.17z"/>
	</g>
</g>
<g>
	<g>
		<path class="st3" d="M763.91,437.87c3.22,0,3.22-5,0-5C760.69,432.87,760.69,437.87,763.91,437.87L763.91,437.87z"/>
	</g>
</g>
<g>
	<g>
		<path class="st3" d="M710.45,349.48c2.62,0,5.12-2.3,5-5c-0.12-2.71-2.2-5-5-5c-2.62,0-5.12,2.3-5,5
			C705.57,347.18,707.64,349.48,710.45,349.48L710.45,349.48z"/>
	</g>
</g>
<g>
	<g>
		<path class="st2" d="M799.55,393.67c3.22,0,3.22-5,0-5C796.34,388.67,796.33,393.67,799.55,393.67L799.55,393.67z"/>
	</g>
</g>
<g>
	<g>
		<path class="st3" d="M907.91,468.17c2.62,0,5.12-2.3,5-5c-0.12-2.71-2.2-5-5-5c-2.62,0-5.12,2.3-5,5
			C903.03,465.88,905.11,468.17,907.91,468.17L907.91,468.17z"/>
	</g>
</g>
<g>
	<g>
		<path class="st3" d="M867.63,427.53c2.62,0,5.12-2.3,5-5c-0.12-2.71-2.2-5-5-5c-2.62,0-5.12,2.3-5,5
			C862.76,425.24,864.83,427.53,867.63,427.53L867.63,427.53z"/>
	</g>
</g>
<g>
	<g>
		<path class="st2" d="M952.11,194.43c2.62,0,5.12-2.3,5-5c-0.12-2.71-2.2-5-5-5c-2.62,0-5.12,2.3-5,5
			C947.23,192.13,949.31,194.43,952.11,194.43L952.11,194.43z"/>
	</g>
</g>
<g>
	<g>
		<path class="st2" d="M942.49,311.69c3.22,0,3.22-5,0-5C939.27,306.69,939.26,311.69,942.49,311.69L942.49,311.69z"/>
	</g>
</g>
<g>
	<g>
		<path class="st2" d="M707.24,179.09c3.22,0,3.22-5,0-5C704.02,174.09,704.02,179.09,707.24,179.09L707.24,179.09z"/>
	</g>
</g>
<g>
	<g>
		<path class="st3" d="M676.23,195.13c3.22,0,3.22-5,0-5C673.01,190.13,673.01,195.13,676.23,195.13L676.23,195.13z"/>
	</g>
</g>
<g>
	<g>
		<path class="st3" d="M764.98,279.61c3.22,0,3.22-5,0-5C761.76,274.61,761.76,279.61,764.98,279.61L764.98,279.61z"/>
	</g>
</g>
<g>
	<g>
		<path class="st2" d="M810.96,194.43c2.62,0,5.12-2.3,5-5c-0.12-2.71-2.2-5-5-5c-2.62,0-5.12,2.3-5,5
			C806.08,192.13,808.16,194.43,810.96,194.43L810.96,194.43z"/>
	</g>
</g>
<g>
	<g>
		<path class="st2" d="M748.94,220.09c2.62,0,5.12-2.3,5-5c-0.12-2.71-2.2-5-5-5c-2.62,0-5.12,2.3-5,5
			C744.06,217.8,746.14,220.09,748.94,220.09L748.94,220.09z"/>
	</g>
</g>
<g>
	<g>
		<path class="st2" d="M732.9,271.05c3.22,0,3.22-5,0-5C729.68,266.05,729.68,271.05,732.9,271.05L732.9,271.05z"/>
	</g>
</g>
<g>
	<g>
		<path class="st3" d="M692.27,236.13c2.62,0,5.12-2.3,5-5c-0.12-2.71-2.2-5-5-5c-2.62,0-5.12,2.3-5,5
			C687.39,233.84,689.46,236.13,692.27,236.13L692.27,236.13z"/>
	</g>
</g>
<g>
	<g>
		<path class="st3" d="M806.68,235.77c3.22,0,3.22-5,0-5C803.47,230.77,803.46,235.77,806.68,235.77L806.68,235.77z"/>
	</g>
</g>
<g>
	<g>
		<path class="st2" d="M858.96,380.36c3.22,0,3.22-5,0-5C855.74,375.36,855.74,380.36,858.96,380.36L858.96,380.36z"/>
	</g>
</g>
<g>
	<g>
		<path class="st3" d="M795.16,347.21c3.22,0,3.22-5,0-5C791.94,342.21,791.94,347.21,795.16,347.21L795.16,347.21z"/>
	</g>
</g>
<g>
	<g>
		<path class="st2" d="M872.98,241.48c2.62,0,5.12-2.3,5-5c-0.12-2.71-2.2-5-5-5c-2.62,0-5.12,2.3-5,5
			C868.1,239.18,870.18,241.48,872.98,241.48L872.98,241.48z"/>
	</g>
</g>
<g>
	<g>
		<path class="st3" d="M870.84,178.02c3.22,0,3.22-5,0-5C867.62,173.02,867.62,178.02,870.84,178.02L870.84,178.02z"/>
	</g>
</g>
<g>
	<g>
		<path class="st3" d="M762.84,172.68c3.22,0,3.22-5,0-5C759.62,167.68,759.62,172.68,762.84,172.68L762.84,172.68z"/>
	</g>
</g>
<g>
	<g>
		<path class="st3" d="M858.01,294.58c3.22,0,3.22-5,0-5C854.79,289.58,854.79,294.58,858.01,294.58L858.01,294.58z"/>
	</g>
</g>
<g>
	<g>
		<path class="st3" d="M941.42,240.41c2.62,0,5.12-2.3,5-5c-0.12-2.71-2.2-5-5-5c-2.62,0-5.12,2.3-5,5
			C936.54,238.11,938.61,240.41,941.42,240.41L941.42,240.41z"/>
	</g>
</g>
<g>
	<g>
		<path class="st3" d="M722.21,111.73c3.22,0,3.22-5,0-5C718.99,106.73,718.99,111.73,722.21,111.73L722.21,111.73z"/>
	</g>
</g>
<g>
	<g>
		<path class="st3" d="M790.64,26.54c2.62,0,5.12-2.3,5-5c-0.12-2.71-2.2-5-5-5c-2.62,0-5.12,2.3-5,5
			C785.76,24.25,787.84,26.54,790.64,26.54L790.64,26.54z"/>
	</g>
</g>
<g>
	<g>
		<path class="st2" d="M709.38,15.49c3.22,0,3.22-5,0-5C706.16,10.49,706.15,15.49,709.38,15.49L709.38,15.49z"/>
	</g>
</g>
<g>
	<g>
		<path class="st3" d="M682.64,35.81c3.22,0,3.22-5,0-5C679.43,30.81,679.42,35.81,682.64,35.81L682.64,35.81z"/>
	</g>
</g>
<g>
	<g>
		<path class="st2" d="M745.73,46.5c3.22,0,3.22-5,0-5C742.52,41.5,742.51,46.5,745.73,46.5L745.73,46.5z"/>
	</g>
</g>
<g>
	<g>
		<path class="st2" d="M789.57,102.47c2.62,0,5.12-2.3,5-5c-0.12-2.71-2.2-5-5-5c-2.62,0-5.12,2.3-5,5
			C784.7,100.17,786.77,102.47,789.57,102.47L789.57,102.47z"/>
	</g>
</g>
<g>
	<g>
		<path class="st3" d="M956.39,13.71c2.62,0,5.12-2.3,5-5c-0.12-2.71-2.2-5-5-5c-2.62,0-5.12,2.3-5,5
			C951.51,11.42,953.58,13.71,956.39,13.71L956.39,13.71z"/>
	</g>
</g>
<g>
	<g>
		<path class="st2" d="M942.49,48.64c3.22,0,3.22-5,0-5C939.27,43.64,939.26,48.64,942.49,48.64L942.49,48.64z"/>
	</g>
</g>
<g>
	<g>
		<path class="st2" d="M846.25,28.68c2.62,0,5.12-2.3,5-5c-0.12-2.71-2.2-5-5-5c-2.62,0-5.12,2.3-5,5
			C841.37,26.39,843.44,28.68,846.25,28.68L846.25,28.68z"/>
	</g>
</g>
<g>
	<g>
		<path class="st3" d="M863.36,82.86c3.22,0,3.22-5,0-5C860.14,77.86,860.13,82.86,863.36,82.86L863.36,82.86z"/>
	</g>
</g>
<g>
	<g>
		<path class="st3" d="M895.44,29.75c2.62,0,5.12-2.3,5-5c-0.12-2.71-2.2-5-5-5c-2.62,0-5.12,2.3-5,5
			C890.56,27.46,892.63,29.75,895.44,29.75L895.44,29.75z"/>
	</g>
</g>
<g>
	<g>
		<path class="st2" d="M828.07,61.47c3.22,0,3.22-5,0-5C824.85,56.47,824.85,61.47,828.07,61.47L828.07,61.47z"/>
	</g>
</g>
<g>
	<g>
		<path class="st3" d="M761.77,64.66c-0.71,0-1.43,0-2.14,0c-0.69-0.03-1.33,0.12-1.93,0.43c-0.62,0.2-1.16,0.55-1.61,1.03
			c-0.49,0.45-0.83,0.99-1.03,1.61c-0.31,0.6-0.46,1.24-0.43,1.93c0.06,0.44,0.12,0.89,0.18,1.33c0.24,0.85,0.67,1.58,1.29,2.21
			c0.34,0.26,0.67,0.52,1.01,0.78c0.78,0.45,1.62,0.68,2.52,0.68c0.71,0,1.43,0,2.14,0c0.69,0.03,1.33-0.12,1.93-0.43
			c0.62-0.2,1.16-0.55,1.61-1.03c0.49-0.45,0.83-0.99,1.03-1.61c0.31-0.6,0.46-1.24,0.43-1.93c-0.06-0.44-0.12-0.89-0.18-1.33
			c-0.24-0.85-0.67-1.58-1.29-2.21c-0.34-0.26-0.67-0.52-1.01-0.78C763.52,64.89,762.67,64.67,761.77,64.66L761.77,64.66z"/>
	</g>
</g>
<g>
	<g>
		<path class="st3" d="M489.1,11.21c3.22,0,3.22-5,0-5C485.88,6.21,485.88,11.21,489.1,11.21L489.1,11.21z"/>
	</g>
</g>
<g>
	<g>
		<path class="st3" d="M540.43,42.22c3.22,0,3.22-5,0-5C537.21,37.22,537.2,42.22,540.43,42.22L540.43,42.22z"/>
	</g>
</g>
<g>
	<g>
		<path class="st3" d="M616.35,28.68c2.62,0,5.12-2.3,5-5c-0.12-2.71-2.2-5-5-5c-2.62,0-5.12,2.3-5,5
			C611.47,26.39,613.54,28.68,616.35,28.68L616.35,28.68z"/>
	</g>
</g>
<g>
	<g>
		<path class="st2" d="M599.24,52.92c3.22,0,3.22-5,0-5C596.02,47.92,596.02,52.92,599.24,52.92L599.24,52.92z"/>
	</g>
</g>
<g>
	<g>
		<path class="st2" d="M520.11,56.12c3.22,0,3.22-5,0-5C516.89,51.12,516.89,56.12,520.11,56.12L520.11,56.12z"/>
	</g>
</g>
<g>
	<g>
		<path class="st3" d="M569.3,15.85c2.62,0,5.12-2.3,5-5c-0.12-2.71-2.2-5-5-5c-2.62,0-5.12,2.3-5,5
			C564.42,13.56,566.49,15.85,569.3,15.85L569.3,15.85z"/>
	</g>
</g>
<g>
	<g>
		<path class="st2" d="M569.3,41.51c2.62,0,5.12-2.3,5-5c-0.12-2.71-2.2-5-5-5c-2.62,0-5.12,2.3-5,5
			C564.42,39.22,566.49,41.51,569.3,41.51L569.3,41.51z"/>
	</g>
</g>
<g>
	<g>
		<path class="st3" d="M203.59,16.56c3.22,0,3.22-5,0-5C200.38,11.56,200.37,16.56,203.59,16.56L203.59,16.56z"/>
	</g>
</g>
<g>
	<g>
		<path class="st2" d="M252.78,77.51c3.22,0,3.22-5,0-5C249.56,72.51,249.56,77.51,252.78,77.51L252.78,77.51z"/>
	</g>
</g>
<g>
	<g>
		<path class="st2" d="M297.69,38.31c2.62,0,5.12-2.3,5-5c-0.12-2.71-2.2-5-5-5c-2.62,0-5.12,2.3-5,5
			C292.81,36.02,294.89,38.31,297.69,38.31L297.69,38.31z"/>
	</g>
</g>
<g>
	<g>
		<path class="st2" d="M254.92,23.34c2.62,0,5.12-2.3,5-5c-0.12-2.71-2.2-5-5-5c-2.62,0-5.12,2.3-5,5
			C250.04,21.05,252.12,23.34,254.92,23.34L254.92,23.34z"/>
	</g>
</g>
<g>
	<g>
		<path class="st3" d="M244.23,43.29c3.22,0,3.22-5,0-5C241.01,38.29,241.01,43.29,244.23,43.29L244.23,43.29z"/>
	</g>
</g>
<g>
	<g>
		<path class="st2" d="M338.33,47.57c3.22,0,3.22-5,0-5C335.11,42.57,335.1,47.57,338.33,47.57L338.33,47.57z"/>
	</g>
</g>
<g>
	<g>
		<path class="st2" d="M433.5,52.92c3.22,0,3.22-5,0-5C430.28,47.92,430.27,52.92,433.5,52.92L433.5,52.92z"/>
	</g>
</g>
<g>
	<g>
		<path class="st3" d="M436.7,15.49c3.22,0,3.22-5,0-5C433.49,10.49,433.48,15.49,436.7,15.49L436.7,15.49z"/>
	</g>
</g>
<g>
	<g>
		<path class="st2" d="M360.78,17.99c2.62,0,5.12-2.3,5-5c-0.12-2.71-2.2-5-5-5c-2.62,0-5.12,2.3-5,5
			C355.9,15.7,357.98,17.99,360.78,17.99L360.78,17.99z"/>
	</g>
</g>
<g>
	<g>
		<path class="st3" d="M374.68,48.64c3.22,0,3.22-5,0-5C371.47,43.64,371.46,48.64,374.68,48.64L374.68,48.64z"/>
	</g>
</g>
<g>
	<g>
		<path class="st2" d="M403.55,25.48c2.62,0,5.12-2.3,5-5c-0.12-2.71-2.2-5-5-5c-2.62,0-5.12,2.3-5,5
			C398.68,23.18,400.75,25.48,403.55,25.48L403.55,25.48z"/>
	</g>
</g>
<g>
	<g>
		<path class="st3" d="M322.29,17.99c2.62,0,5.12-2.3,5-5c-0.12-2.71-2.2-5-5-5c-2.62,0-5.12,2.3-5,5
			C317.41,15.7,319.48,17.99,322.29,17.99L322.29,17.99z"/>
	</g>
</g>
<g>
	<path d="M266.44,52.95l86.81,326.81h58.72l14.26,21.06l-37.45-0.43l66.38,61.7l-21.49-32.55c0,0,39.57,3.83,39.57,0
		c0-3.83,8.94-63.83,8.94-63.83l158.3-8.94L757.93,54.22L266.44,52.95z"/>
	<path class="st4" d="M273.46,48.48l86.81,326.81h58.72l17.87,29.36h-37.02l56.17,56.17l-15.32-35.75c0,0,39.57,3.83,39.57,0
		c0-3.83,8.94-63.83,8.94-63.83l158.3-8.94L764.95,49.75L273.46,48.48z"/>
	<g>
		<g>
			<path d="M601.12,65.49c4.56,0.06,9.12,0.11,13.68,0.17c10.9,0.14,21.81,0.27,32.71,0.41c13.18,0.16,26.37,0.33,39.55,0.49
				c11.43,0.14,22.85,0.28,34.28,0.43c3.74,0.05,7.48,0.09,11.22,0.14c1.76,0.02,3.59,0.2,5.34,0.07c0.08-0.01,0.16,0,0.24,0
				c-0.68-0.89-1.36-1.79-2.04-2.68c-0.96,2.85-1.92,5.71-2.88,8.56c-2.29,6.82-4.59,13.63-6.88,20.45
				c-2.79,8.29-5.58,16.57-8.37,24.86c-2.41,7.17-4.82,14.33-7.24,21.5c-1.16,3.46-2.57,6.92-3.51,10.44
				c-0.01,0.05-0.03,0.1-0.05,0.14c-0.87,2.59,3.22,3.7,4.09,1.13c0.96-2.85,1.92-5.71,2.88-8.56c2.29-6.82,4.59-13.63,6.88-20.45
				c2.79-8.29,5.58-16.57,8.37-24.86c2.41-7.17,4.82-14.33,7.24-21.5c1.16-3.46,2.57-6.92,3.51-10.44c0.01-0.05,0.03-0.1,0.05-0.14
				c0.45-1.33-0.73-2.67-2.04-2.68c-4.56-0.06-9.12-0.11-13.68-0.17c-10.9-0.14-21.81-0.27-32.71-0.41
				c-13.18-0.16-26.37-0.33-39.55-0.49c-11.43-0.14-22.85-0.28-34.28-0.43c-5.51-0.07-11.05-0.34-16.56-0.21c-0.08,0-0.16,0-0.24,0
				C598.39,61.22,598.39,65.46,601.12,65.49L601.12,65.49z"/>
		</g>
	</g>
	<g>
		<g>
			<path d="M359.07,315c1.25,5.09,2.5,10.18,3.75,15.27c1.98,8.07,3.96,16.15,5.94,24.22c0.46,1.87,0.92,3.74,1.38,5.61
				c0.22,0.88,1.14,1.58,2.04,1.56c10.68-0.25,21.36-0.5,32.04-0.75c1.52-0.04,3.03-0.07,4.55-0.11c2.72-0.06,2.73-4.3,0-4.24
				c-10.68,0.25-21.36,0.5-32.04,0.75c-1.52,0.04-3.03,0.07-4.55,0.11c0.68,0.52,1.36,1.04,2.04,1.56
				c-1.25-5.09-2.5-10.18-3.75-15.27c-1.98-8.07-3.96-16.15-5.94-24.22c-0.46-1.87-0.92-3.74-1.38-5.61
				C362.51,311.23,358.42,312.35,359.07,315L359.07,315z"/>
		</g>
	</g>
</g>
<path d="M-255.92,140.24h-141.87c-3.29,0-5.98-2.69-5.98-5.98V86.34c0-3.29,2.69-5.98,5.98-5.98h141.87c3.29,0,5.98,2.69,5.98,5.98
	v47.92C-249.94,137.55-252.63,140.24-255.92,140.24z"/>
</svg>
